<svg width="159" height="159" viewBox="0 0 159 159" fill="none" xmlns="http://www.w3.org/2000/svg">
<path d="M131.685 0H27.3152C12.2294 0 0 12.2294 0 27.3152V131.685C0 146.771 12.2294 159 27.3152 159H131.685C146.771 159 159 146.771 159 131.685V27.3152C159 12.2294 146.771 0 131.685 0Z" fill="#F27321"/>
<path d="M47.7599 47.462V55.6105H60.9194V62.7125H47.7599V71.3563H62.571V78.8997H38.3452V39.9688H62.571V47.462H47.7599Z" fill="white"/>
<path d="M84.6475 49.3896C86.3091 50.4244 87.615 51.9421 88.3903 53.7395V48.1696H97.7511V78.8904H88.3903V73.3302C87.6155 75.1279 86.3095 76.6457 84.6475 77.68C82.9592 78.7439 80.9407 79.2758 78.592 79.2758C76.057 79.2758 73.7899 78.643 71.7907 77.3774C69.7915 76.1119 68.2137 74.2855 67.0573 71.8982C65.9009 69.5122 65.3228 66.7228 65.3228 63.53C65.3228 60.2999 65.9009 57.5008 67.0573 55.1329C68.2137 52.7649 69.7915 50.9481 71.7907 49.6825C73.7912 48.4157 76.0583 47.7829 78.592 47.7842C80.9394 47.7842 82.9579 48.3193 84.6475 49.3896ZM76.7457 58.0334C75.5161 59.3555 74.9013 61.1909 74.9013 63.5396C74.9013 65.8883 75.5161 67.7237 76.7457 69.0458C77.9753 70.3654 79.6 71.0258 81.6198 71.0271C83.601 71.0271 85.2251 70.348 86.4919 68.99C87.7588 67.6319 88.3916 65.8151 88.3903 63.5396C88.3903 61.2269 87.7575 59.4005 86.4919 58.0604C85.2263 56.7203 83.6023 56.0509 81.6198 56.0522C79.6 56.0458 77.9753 56.703 76.7457 58.0238V58.0334Z" fill="white"/>
<path d="M120.655 70.7984V78.893H116.415C112.817 78.893 110.018 78.0032 108.018 76.2237C106.017 74.4442 105.018 71.4987 105.019 67.3871V56.0972H100.889V48.1703H105.019V40.627H114.434V48.1703H120.601V56.0972H114.434V67.549C114.434 68.7606 114.681 69.6048 115.176 70.0815C115.67 70.5581 116.505 70.7971 117.681 70.7984H120.655Z" fill="white"/>
<path d="M84.2047 85.4072V125.774H74.3756V100.527L65.6354 125.774H57.1169L48.3227 100.473V125.774H38.4937V85.4072H50.5121L61.4976 113.526L72.2498 85.4072H84.2047Z" fill="white"/>
<path d="M120.138 111.514H97.8918C98.0049 113.928 98.6178 115.663 99.7304 116.718C100.843 117.773 102.262 118.3 103.986 118.298C105.443 118.298 106.651 117.935 107.609 117.207C108.544 116.512 109.214 115.518 109.507 114.39H119.915C119.512 116.609 118.563 118.693 117.155 120.455C115.711 122.259 113.862 123.698 111.759 124.654C109.574 125.669 107.14 126.177 104.456 126.177C101.312 126.177 98.5233 125.516 96.0898 124.194C93.6665 122.884 91.678 120.895 90.3678 118.472C88.9878 115.979 88.2979 113.066 88.2979 109.732C88.2979 106.359 88.9782 103.436 90.3388 100.962C91.6412 98.5452 93.6266 96.5651 96.0474 95.2693C98.4989 93.9472 101.297 93.2855 104.443 93.2842C107.624 93.2842 110.422 93.9362 112.838 95.2404C115.198 96.4899 117.146 98.3972 118.444 100.731C119.769 103.09 120.43 105.802 120.427 108.868C120.419 109.758 120.322 110.644 120.138 111.514ZM108.783 102.63C107.616 101.571 106.171 101.041 104.446 101.041C102.648 101.041 101.153 101.579 99.9617 102.653C98.7707 103.727 98.0993 105.298 97.9477 107.367H110.475C110.519 105.265 109.957 103.686 108.789 102.63H108.783Z" fill="white"/>
</svg>
