<svg width="80" height="19" viewBox="0 0 80 19" fill="none" xmlns="http://www.w3.org/2000/svg">
    <g id="Group 3">
        <path id="Vector"
            d="M4.55597 3.61862V7.55317H10.9207V10.9855H4.55597V15.1642H11.7134V18.8094H0V0H11.7087V3.61862H4.55597Z"
            fill="#E27A39" />
        <path id="Vector_2"
            d="M22.3274 4.55015C23.1315 5.05166 23.7628 5.78749 24.1361 6.65859V3.97038H28.6608V18.8094H24.1361V16.1212C23.7623 16.9905 23.131 17.7243 22.3274 18.2238C21.5104 18.7392 20.5345 18.9965 19.3996 18.9957C18.2385 19.0133 17.0971 18.6946 16.1131 18.078C15.1457 17.4662 14.3827 16.5833 13.8241 15.4292C13.2656 14.275 12.9863 12.9269 12.9863 11.3847C12.9863 9.8232 13.2656 8.47041 13.8241 7.32631C14.3827 6.18221 15.1457 5.30388 16.1131 4.69132C17.0971 4.07473 18.2385 3.75602 19.3996 3.77364C20.536 3.77673 21.5119 4.03557 22.3274 4.55015ZM18.5085 8.7277C17.9137 9.36649 17.6163 10.2537 17.6163 11.3893C17.6163 12.5249 17.9137 13.4121 18.5085 14.0509C19.1026 14.6897 19.8876 15.0091 20.8635 15.0091C21.8217 15.0091 22.6066 14.6808 23.2184 14.0243C23.8302 13.3678 24.1361 12.4894 24.1361 11.3893C24.1361 10.2714 23.8302 9.38886 23.2184 8.74159C22.6066 8.09432 21.8217 7.77068 20.8635 7.77068C19.8883 7.77068 19.1034 8.08969 18.5085 8.7277Z"
            fill="#E27A39" />
        <path id="Vector_3"
            d="M39.6775 14.9026V18.8094H37.6281C35.89 18.8094 34.5372 18.3793 33.5697 17.5191C32.6023 16.6589 32.119 15.2374 32.1197 13.2547V7.7996H30.1235V3.96689H32.1197V0.321655H36.6699V3.96689H39.6509V7.7996H36.6699V13.3346C36.6699 13.9201 36.7899 14.3282 37.0298 14.5589C37.2698 14.7896 37.6732 14.9053 38.2403 14.9061L39.6775 14.9026Z"
            fill="#E27A39" />
        <path id="Vector_4"
            d="M62.8555 0.133057V18.8094H58.3053V7.1215L54.255 18.8094H50.3205L46.2494 7.10066V18.8094H41.7027V0.133057H47.2573L52.3491 13.146L57.3251 0.133057H62.8555Z"
            fill="#E27A39" />
        <path id="Vector_5"
            d="M79.435 12.2133H69.1357C69.1889 13.3312 69.4725 14.134 69.9863 14.6215C70.5001 15.1091 71.1558 15.3529 71.9535 15.3529C72.6278 15.3529 73.1867 15.1847 73.6303 14.8483C74.0633 14.5266 74.3733 14.0664 74.5087 13.5441H79.325C79.1395 14.5709 78.7021 15.5355 78.0521 16.3516C77.3828 17.1868 76.526 17.8525 75.5513 18.2945C74.49 18.7749 73.3359 19.0156 72.1711 18.9993C70.7169 18.9993 69.4262 18.6934 68.299 18.0816C67.1777 17.4748 66.2576 16.5543 65.6513 15.4327C65.0125 14.2801 64.6931 12.932 64.6931 11.3882C64.6931 9.82678 65.0083 8.47399 65.6386 7.32989C66.2428 6.21027 67.1638 5.2937 68.2863 4.6949C69.4211 4.08389 70.7161 3.77799 72.1711 3.77722C73.6431 3.77722 74.9384 4.07888 76.057 4.68217C77.1499 5.26197 78.0512 6.14633 78.6515 7.22805C79.2633 8.31893 79.5692 9.57411 79.5692 10.9936C79.5646 11.4036 79.5196 11.8122 79.435 12.2133ZM74.1789 8.10175C73.6272 7.6104 72.9084 7.34873 72.1699 7.37039C71.3352 7.37039 70.6432 7.61841 70.0939 8.11447C69.5446 8.61053 69.236 9.33804 69.1681 10.297H74.9704C74.9835 9.32184 74.7197 8.59048 74.1789 8.1029V8.10175Z"
            fill="#E27A39" />
        <path id="Vector_6"
            d="M4.55597 3.61862V7.55317H10.9207V10.9855H4.55597V15.1642H11.7134V18.8094H0V0H11.7087V3.61862H4.55597Z"
            fill="#E27A39" />
        <path id="Vector_7"
            d="M22.3274 4.55015C23.1315 5.05166 23.7628 5.78749 24.1361 6.65859V3.97038H28.6608V18.8094H24.1361V16.1212C23.7623 16.9905 23.131 17.7243 22.3274 18.2238C21.5104 18.7392 20.5345 18.9965 19.3996 18.9957C18.2385 19.0133 17.0971 18.6946 16.1131 18.078C15.1457 17.4662 14.3827 16.5833 13.8241 15.4292C13.2656 14.275 12.9863 12.9269 12.9863 11.3847C12.9863 9.8232 13.2656 8.47041 13.8241 7.32631C14.3827 6.18221 15.1457 5.30388 16.1131 4.69132C17.0971 4.07473 18.2385 3.75602 19.3996 3.77364C20.536 3.77673 21.5119 4.03557 22.3274 4.55015ZM18.5085 8.7277C17.9137 9.36649 17.6163 10.2537 17.6163 11.3893C17.6163 12.5249 17.9137 13.4121 18.5085 14.0509C19.1026 14.6897 19.8876 15.0091 20.8635 15.0091C21.8217 15.0091 22.6066 14.6808 23.2184 14.0243C23.8302 13.3678 24.1361 12.4894 24.1361 11.3893C24.1361 10.2714 23.8302 9.38886 23.2184 8.74159C22.6066 8.09432 21.8217 7.77068 20.8635 7.77068C19.8883 7.77068 19.1034 8.08969 18.5085 8.7277Z"
            fill="#E27A39" />
        <path id="Vector_8"
            d="M39.6775 14.9026V18.8094H37.6281C35.89 18.8094 34.5372 18.3793 33.5697 17.5191C32.6023 16.6589 32.119 15.2374 32.1197 13.2547V7.7996H30.1235V3.96689H32.1197V0.321655H36.6699V3.96689H39.6509V7.7996H36.6699V13.3346C36.6699 13.9201 36.7899 14.3282 37.0298 14.5589C37.2698 14.7896 37.6732 14.9053 38.2403 14.9061L39.6775 14.9026Z"
            fill="#E27A39" />
        <path id="Vector_9"
            d="M62.8555 0.133057V18.8094H58.3053V7.1215L54.255 18.8094H50.3205L46.2494 7.10066V18.8094H41.7027V0.133057H47.2573L52.3491 13.146L57.3251 0.133057H62.8555Z"
            fill="#E27A39" />
        <path id="Vector_10"
            d="M79.435 12.2133H69.1357C69.1889 13.3312 69.4725 14.134 69.9863 14.6215C70.5001 15.1091 71.1558 15.3529 71.9535 15.3529C72.6278 15.3529 73.1867 15.1847 73.6303 14.8483C74.0633 14.5266 74.3733 14.0664 74.5087 13.5441H79.325C79.1395 14.5709 78.7021 15.5355 78.0521 16.3516C77.3828 17.1868 76.526 17.8525 75.5513 18.2945C74.49 18.7749 73.3359 19.0156 72.1711 18.9993C70.7169 18.9993 69.4262 18.6934 68.299 18.0816C67.1777 17.4748 66.2576 16.5543 65.6513 15.4327C65.0125 14.2801 64.6931 12.932 64.6931 11.3882C64.6931 9.82678 65.0083 8.47399 65.6386 7.32989C66.2428 6.21027 67.1638 5.2937 68.2863 4.6949C69.4211 4.08389 70.7161 3.77799 72.1711 3.77722C73.6431 3.77722 74.9384 4.07888 76.057 4.68217C77.1499 5.26197 78.0512 6.14633 78.6515 7.22805C79.2633 8.31893 79.5692 9.57411 79.5692 10.9936C79.5646 11.4036 79.5196 11.8122 79.435 12.2133ZM74.1789 8.10175C73.6272 7.6104 72.9084 7.34873 72.1699 7.37039C71.3352 7.37039 70.6432 7.61841 70.0939 8.11447C69.5446 8.61053 69.236 9.33804 69.1681 10.297H74.9704C74.9835 9.32184 74.7197 8.59048 74.1789 8.1029V8.10175Z"
            fill="#E27A39" />
    </g>
</svg>